<svg width="573" height="383" viewBox="0 0 573 383" fill="none" xmlns="http://www.w3.org/2000/svg">
<path d="M0 0.0585938L258.796 244.468H314.204L573 0.0585938H470.809L289.711 178.573L100.165 0.0585938H0Z" fill="black"/>
<path d="M378.276 0L289.684 83.6827L201.091 0H123.525L289.684 154.99L447.59 0H378.276Z" fill="black"/>
<path d="M81.002 299H106.083L67.2017 383H38.881L0 299H25.0806L53.0413 365.24L81.002 299ZM188.139 331.28V348.32H113.258V331.28H188.139ZM113.258 365.84H192.7V383H113.258V365.84ZM191.62 299V316.04H113.258V299H191.62ZM279.548 331.28V348.32H204.666V331.28H279.548ZM204.666 365.84H284.108V383H204.666V365.84ZM283.028 299V316.04H204.666V299H283.028ZM369.879 299H394.96L356.079 383H327.758L288.874 299H313.955L341.919 365.24L369.879 299ZM477.012 331.28V348.32H402.13V331.28H477.012ZM402.13 365.84H481.572V383H402.13V365.84ZM480.492 299V316.04H402.13V299H480.492ZM568.424 331.28V348.32H493.542V331.28H568.424ZM493.542 365.84H572.984V383H493.542V365.84ZM571.904 299V316.04H493.542V299H571.904Z" fill="black"/>
</svg>
