<svg width="5586" height="819" viewBox="0 0 5586 819" fill="none" xmlns="http://www.w3.org/2000/svg">
<path d="M789.685 0H1034.2L655.146 818.912H379.049L0 0H244.51L517.098 645.771L789.685 0ZM1834.16 314.696V480.819H1104.14V314.696H1834.16ZM1104.14 651.62H1878.62V818.912H1104.14V651.62ZM1868.09 0V166.122H1104.14V0H1868.09ZM2725.3 314.696V480.819H1995.28V314.696H2725.3ZM1995.28 651.62H2769.76V818.912H1995.28V651.62ZM2759.23 0V166.122H1995.28V0H2759.23ZM3605.94 0H3850.45L3471.4 818.912H3195.3L2816.22 0H3060.73L3333.35 645.771L3605.94 0ZM4650.37 314.696V480.819H3920.35V314.696H4650.37ZM3920.35 651.62H4694.83V818.912H3920.35V651.62ZM4684.3 0V166.122H3920.35V0H4684.3ZM5541.54 314.696V480.819H4811.52V314.696H5541.54ZM4811.52 651.62H5586V818.912H4811.52V651.62ZM5575.47 0V166.122H4811.52V0H5575.47Z" fill="black"/>
</svg>
